<svg width="20" height="20" viewBox="0 0 20 20" fill="none" xmlns="http://www.w3.org/2000/svg">
<mask id="mask0_667_400" style="mask-type:alpha" maskUnits="userSpaceOnUse" x="0" y="0" width="20" height="20">
<rect width="20" height="20" fill="#D9D9D9"/>
</mask>
<g mask="url(#mask0_667_400)">
<path d="M5.83301 19.1667L8.39551 6.20833C8.47884 5.80556 8.66634 5.50347 8.95801 5.30208C9.24967 5.10069 9.55523 5 9.87467 5C10.1941 5 10.4893 5.06944 10.7601 5.20833C11.0309 5.34722 11.2497 5.55556 11.4163 5.83333L12.2497 7.16667C12.4997 7.56944 12.8226 7.93403 13.2184 8.26042C13.6143 8.58681 14.0691 8.82639 14.583 8.97917V7.5H15.833V19.1667H14.583V10.7083C13.9163 10.5556 13.2983 10.3125 12.7288 9.97917C12.1594 9.64583 11.6663 9.23611 11.2497 8.75L10.7497 11.25L12.4997 12.9167V19.1667H10.833V14.1667L9.08301 12.5L7.58301 19.1667H5.83301ZM6.18717 10.9375L4.41634 10.6042C4.19412 10.5625 4.02051 10.4479 3.89551 10.2604C3.77051 10.0729 3.72884 9.86111 3.77051 9.625L4.39551 6.35417C4.47884 5.90972 4.71495 5.55903 5.10384 5.30208C5.49273 5.04514 5.9094 4.95833 6.35384 5.04167L7.31217 5.22917L6.18717 10.9375ZM10.0726 4.09375C9.7462 3.76736 9.58301 3.375 9.58301 2.91667C9.58301 2.45833 9.7462 2.06597 10.0726 1.73958C10.399 1.41319 10.7913 1.25 11.2497 1.25C11.708 1.25 12.1004 1.41319 12.4268 1.73958C12.7531 2.06597 12.9163 2.45833 12.9163 2.91667C12.9163 3.375 12.7531 3.76736 12.4268 4.09375C12.1004 4.42014 11.708 4.58333 11.2497 4.58333C10.7913 4.58333 10.399 4.42014 10.0726 4.09375Z" fill="#AAB0BB"/>
</g>
</svg>
