<svg width="20" height="20" viewBox="0 0 20 20" fill="none" xmlns="http://www.w3.org/2000/svg">
<mask id="mask0_667_431" style="mask-type:alpha" maskUnits="userSpaceOnUse" x="0" y="0" width="20" height="20">
<rect width="20" height="20" fill="#D9D9D9"/>
</mask>
<g mask="url(#mask0_667_431)">
<path d="M5.10433 12.1491C5.10433 12.9094 5.25928 13.6294 5.56917 14.3092C5.87907 14.989 6.32178 15.5848 6.8973 16.0965C6.88254 16.0234 6.87516 15.9576 6.87516 15.8991V15.7018C6.87516 15.2339 6.9637 14.7953 7.14079 14.386C7.31787 13.9766 7.57612 13.6038 7.91553 13.2675L10.4168 10.8333L12.9181 13.2675C13.2575 13.6038 13.5158 13.9766 13.6929 14.386C13.87 14.7953 13.9585 15.2339 13.9585 15.7018V15.8991C13.9585 15.9576 13.9511 16.0234 13.9364 16.0965C14.5119 15.5848 14.9546 14.989 15.2645 14.3092C15.5744 13.6294 15.7293 12.9094 15.7293 12.1491C15.7293 11.4181 15.5928 10.7273 15.3198 10.0768C15.0468 9.42617 14.6521 8.84503 14.1356 8.33333C13.8404 8.52339 13.5305 8.66594 13.2059 8.76097C12.8812 8.85599 12.5492 8.90351 12.2098 8.90351C11.2949 8.90351 10.5017 8.6038 9.83024 8.00439C9.1588 7.40497 8.77143 6.66667 8.66813 5.78947C8.09261 6.27193 7.5835 6.77266 7.14079 7.29167C6.69808 7.81067 6.32547 8.33699 6.02295 8.87061C5.72043 9.40424 5.4917 9.94883 5.33675 10.5044C5.1818 11.0599 5.10433 11.6082 5.10433 12.1491ZM10.4168 13.2895L9.15511 14.5175C8.99279 14.6784 8.86735 14.8611 8.77881 15.0658C8.69027 15.2705 8.646 15.4825 8.646 15.7018C8.646 16.1696 8.81939 16.5716 9.16618 16.9079C9.51297 17.2442 9.92985 17.4123 10.4168 17.4123C10.9038 17.4123 11.3207 17.2442 11.6675 16.9079C12.0143 16.5716 12.1877 16.1696 12.1877 15.7018C12.1877 15.4678 12.1434 15.2522 12.0549 15.0548C11.9663 14.8575 11.8409 14.6784 11.6785 14.5175L10.4168 13.2895ZM10.4168 2.5V5.39474C10.4168 5.89181 10.5902 6.30848 10.937 6.64474C11.2838 6.98099 11.7081 7.14912 12.2098 7.14912C12.4754 7.14912 12.7226 7.0943 12.9513 6.98465C13.1801 6.875 13.383 6.71053 13.5601 6.49123L13.9585 6.00877C15.0505 6.62281 15.9138 7.47807 16.5483 8.57456C17.1829 9.67105 17.5002 10.8626 17.5002 12.1491C17.5002 14.1082 16.814 15.7675 15.4416 17.1272C14.0692 18.4868 12.3943 19.1667 10.4168 19.1667C8.4394 19.1667 6.76449 18.4868 5.39209 17.1272C4.01969 15.7675 3.3335 14.1082 3.3335 12.1491C3.3335 10.2632 3.97173 8.47222 5.24821 6.77632C6.52469 5.08041 8.24756 3.65497 10.4168 2.5Z" fill="#AAB0BB"/>
</g>
</svg>
