<svg width="50" height="50" viewBox="0 0 50 50" fill="none" xmlns="http://www.w3.org/2000/svg">
<path d="M36.208 4.88867H13.2913C6.41634 4.88867 1.83301 8.32617 1.83301 16.347V32.3887C1.83301 40.4095 6.41634 43.847 13.2913 43.847H36.208C43.083 43.847 47.6663 40.4095 47.6663 32.3887V16.347C47.6663 8.32617 43.083 4.88867 36.208 4.88867ZM37.2851 18.8449L30.1122 24.5741C28.5997 25.7887 26.6747 26.3845 24.7497 26.3845C22.8247 26.3845 20.8768 25.7887 19.3872 24.5741L12.2143 18.8449C11.4809 18.2491 11.3663 17.1491 11.9393 16.4158C12.5351 15.6824 13.6122 15.5449 14.3455 16.1408L21.5184 21.8699C23.2601 23.2678 26.2163 23.2678 27.958 21.8699L35.1309 16.1408C35.8643 15.5449 36.9643 15.6595 37.5372 16.4158C38.133 17.1491 38.0184 18.2491 37.2851 18.8449Z" fill="#878F9D"/>
</svg>
