<svg width="55" height="55" viewBox="0 0 55 55" fill="none" xmlns="http://www.w3.org/2000/svg">
<path d="M38.958 4.5835H16.0413C9.71634 4.5835 4.58301 9.69391 4.58301 15.996V29.7002V31.9918C4.58301 38.2939 9.71634 43.4043 16.0413 43.4043H19.4788C20.0976 43.4043 20.9226 43.8168 21.3122 44.321L24.7497 48.8814C26.2622 50.8981 28.7372 50.8981 30.2497 48.8814L33.6872 44.321C34.1226 43.7481 34.8101 43.4043 35.5205 43.4043H38.958C45.283 43.4043 50.4163 38.2939 50.4163 31.9918V15.996C50.4163 9.69391 45.283 4.5835 38.958 4.5835ZM29.7913 31.5106H16.0413C15.1018 31.5106 14.3226 30.7314 14.3226 29.7918C14.3226 28.8522 15.1018 28.0731 16.0413 28.0731H29.7913C30.7309 28.0731 31.5101 28.8522 31.5101 29.7918C31.5101 30.7314 30.7309 31.5106 29.7913 31.5106ZM38.958 20.0522H16.0413C15.1018 20.0522 14.3226 19.2731 14.3226 18.3335C14.3226 17.3939 15.1018 16.6147 16.0413 16.6147H38.958C39.8976 16.6147 40.6768 17.3939 40.6768 18.3335C40.6768 19.2731 39.8976 20.0522 38.958 20.0522Z" fill="#878F9D"/>
</svg>
